<?xml version="1.0" standalone="no"?>
<!DOCTYPE svg PUBLIC "-//W3C//DTD SVG 20010904//EN"
 "http://www.w3.org/TR/2001/REC-SVG-20010904/DTD/svg10.dtd">
<svg version="1.0" xmlns="http://www.w3.org/2000/svg"
 width="512.000000pt" height="512.000000pt" viewBox="0 0 512.000000 512.000000"
 preserveAspectRatio="xMidYMid meet">

<g transform="translate(0.000000,512.000000) scale(0.100000,-0.100000)"
fill="#000000" stroke="none">
<path d="M1355 4939 c-736 -82 -1315 -724 -1352 -1500 -18 -371 94 -736 318
-1036 102 -135 2055 -2159 2122 -2198 120 -69 279 -18 343 112 27 54 26 164
-3 218 -12 22 -377 409 -814 860 -1248 1292 -1225 1268 -1290 1369 -69 106
-111 203 -147 335 -21 83 -25 118 -26 256 -1 169 7 222 51 360 87 271 282 504
523 625 443 223 954 89 1262 -331 72 -98 164 -139 265 -119 71 15 107 42 181
135 87 110 134 157 222 224 98 74 226 136 348 168 136 36 335 38 467 4 649
-166 981 -915 681 -1536 -85 -175 -67 -156 -1199 -1328 -175 -182 -275 -293
-288 -320 -26 -59 -25 -157 2 -214 43 -89 160 -153 253 -139 92 15 105 27 708
653 765 796 789 822 863 933 369 555 367 1251 -6 1810 -85 128 -283 326 -408
409 -295 195 -626 282 -961 251 -314 -29 -628 -163 -845 -361 -29 -27 -58 -49
-63 -49 -6 0 -36 22 -68 50 -309 270 -732 404 -1139 359z"/>
</g>
</svg>
